<?xml version="1.0" encoding="UTF-8"?>
<svg id="Layer_1" data-name="Layer 1" xmlns="http://www.w3.org/2000/svg" viewBox="0 0 94.48 39.47">
  <defs>
    <style>
      .cls-1 {
        fill: #a51b5a;
        stroke-width: 0px;
      }
    </style>
  </defs>
  <path class="cls-1" d="M27.18,29.39c-2.49-1.44-4.59-3.47-6.24-5.55h-.02c3.98,6.07,10.16,14.33,19.42,14.43-2.6-1.28-4.42-2.38-6.08-3.85-2.18-1.92-4.57-3.57-7.08-5.03Z"/>
  <path class="cls-1" d="M40.34,1.21c-10.41.38-13.83,5.71-22.33,17.7C8.43,32.4,7.45,34.61,0,38.27c12.69-.13,20.36-16.22,23.17-19.88S33.12,2.94,40.34,1.21Z"/>
  <path class="cls-1" d="M19.41,14.97C12.71,5.59,9.27,1.55,0,1.21c7.09,1.7,14.13,13.14,17.03,17"/>
  <path class="cls-1" d="M29.87,29.46c-1.72-2.28-3.78-5.25-6.65-9.31-.37.45-1.15,1.67-1.74,2.69,2.04,2.17,4.81,4.59,8.39,6.63Z"/>
  <path class="cls-1" d="M27.18,29.39c-2.49-1.44-4.59-3.47-6.24-5.55h-.02c3.98,6.07,10.16,14.33,19.42,14.43-2.6-1.28-4.42-2.38-6.08-3.85-2.18-1.92-4.57-3.57-7.08-5.03Z"/>
  <g>
    <path class="cls-1" d="M8.03,8.07c-.66-.72-1.35-1.42-2.04-2.07C2.55,9.56.43,14.4.43,19.74s2.05,10.03,5.4,13.56c.62-.58,1.23-1.22,1.86-1.95-2.8-3-4.51-7.03-4.51-11.46s1.85-8.77,4.85-11.81Z"/>
    <path class="cls-1" d="M20.17,0c-3.78,0-7.32,1.07-10.32,2.91.48.31.96.64,1.43,1.01.38.3.76.62,1.14.96,2.29-1.16,4.88-1.82,7.63-1.82s5.45.68,7.78,1.9c.11-.09.21-.19.32-.28.77-.66,1.56-1.24,2.37-1.75-3.01-1.85-6.55-2.92-10.34-2.92Z"/>
  </g>
  <path class="cls-1" d="M28.48,34.46c-2.48,1.44-5.36,2.26-8.44,2.26s-5.84-.79-8.29-2.17c-.78.64-1.57,1.21-2.36,1.72,3.1,2.02,6.8,3.2,10.77,3.2s7.66-1.17,10.76-3.19c-.83-.54-1.64-1.14-2.44-1.82Z"/>
  <path class="cls-1" d="M40.34,1.21c-10.41.38-13.83,5.71-22.33,17.7C8.43,32.4,7.44,34.61,0,38.27c12.69-.13,20.36-16.22,23.17-19.88S33.12,2.94,40.34,1.21Z"/>
  <g>
    <path class="cls-1" d="M45,19.53c0,.43-.11.73-.32.91-.21.18-.46.27-.73.27h-9.74c0,.82.08,1.56.25,2.22.17.66.44,1.22.83,1.69.39.47.89.83,1.5,1.08.62.25,1.37.38,2.26.38.7,0,1.33-.06,1.88-.17.55-.11,1.03-.24,1.43-.39.4-.14.73-.27.99-.39.26-.11.45-.17.59-.17.08,0,.15.02.21.06.06.04.11.1.14.17.03.08.06.18.07.32.02.14.02.3.02.5,0,.14,0,.27-.02.37-.01.1-.02.2-.04.28s-.04.16-.08.22c-.04.07-.09.13-.15.19s-.24.16-.53.3c-.3.14-.68.27-1.15.4-.47.13-1.02.25-1.63.35-.62.1-1.28.16-1.98.16-1.22,0-2.28-.17-3.2-.51-.91-.34-1.68-.84-2.31-1.51-.62-.67-1.1-1.51-1.41-2.51-.32-1.01-.48-2.18-.48-3.52s.16-2.41.49-3.43c.33-1.01.8-1.87,1.42-2.58.62-.71,1.37-1.25,2.24-1.63.88-.38,1.86-.57,2.94-.57,1.16,0,2.15.19,2.97.56.82.37,1.49.87,2.01,1.5.53.63.91,1.37,1.16,2.22.25.85.37,1.76.37,2.72v.49ZM42.28,18.72c.03-1.42-.28-2.54-.95-3.35-.67-.81-1.66-1.22-2.97-1.22-.67,0-1.26.13-1.77.38-.51.25-.93.59-1.27,1-.34.42-.61.9-.79,1.45-.19.55-.29,1.13-.31,1.73h8.07Z"/>
    <path class="cls-1" d="M57.77,13.75c0,.24,0,.44-.02.61-.01.16-.03.29-.07.39-.03.09-.07.16-.12.21-.05.05-.12.07-.21.07s-.19-.02-.32-.07c-.13-.05-.27-.1-.43-.15-.16-.05-.34-.1-.53-.14-.2-.04-.41-.07-.64-.07-.27,0-.54.05-.81.16-.26.11-.54.29-.83.54-.29.25-.59.59-.91,1-.32.42-.67.93-1.05,1.53v9.73c0,.09-.02.16-.07.22-.04.06-.12.11-.21.16-.1.04-.24.08-.41.1-.18.02-.4.03-.67.03s-.48-.01-.66-.03c-.18-.02-.31-.06-.42-.1-.1-.04-.18-.1-.21-.16-.04-.06-.06-.13-.06-.22v-14.79c0-.09.02-.16.05-.22.03-.06.1-.12.2-.16.1-.05.22-.08.38-.1.15-.02.36-.02.61-.02s.44,0,.6.02c.16.02.28.05.37.1.09.05.15.1.19.16.04.06.06.13.06.22v2.15c.41-.59.79-1.07,1.14-1.45.36-.37.69-.67,1.01-.88.32-.21.63-.36.94-.44s.63-.12.94-.12c.14,0,.3,0,.48.02.18.02.37.05.57.09.2.04.37.09.53.15.16.05.27.11.34.16.07.05.11.11.13.16.02.05.04.11.06.19.02.08.03.19.03.34,0,.15,0,.35,0,.6Z"/>
    <path class="cls-1" d="M74.07,20c0,1.2-.16,2.31-.48,3.33-.32,1.01-.79,1.89-1.42,2.62-.63.73-1.42,1.31-2.37,1.72-.95.41-2.05.62-3.29.62s-2.28-.18-3.18-.54c-.9-.36-1.66-.89-2.26-1.58-.6-.69-1.05-1.53-1.35-2.51-.3-.99-.44-2.1-.44-3.35s.16-2.31.47-3.33c.31-1.01.78-1.89,1.41-2.62.63-.73,1.42-1.3,2.36-1.71.94-.41,2.04-.61,3.3-.61s2.28.18,3.18.54c.9.36,1.66.89,2.26,1.58.6.69,1.05,1.53,1.36,2.51.3.99.45,2.1.45,3.33ZM71.26,20.19c0-.8-.07-1.56-.22-2.27-.15-.71-.4-1.34-.74-1.87-.34-.54-.81-.96-1.39-1.27-.59-.31-1.32-.47-2.19-.47-.81,0-1.5.14-2.08.43-.58.28-1.06.69-1.43,1.21-.38.52-.65,1.14-.84,1.85-.18.71-.27,1.49-.27,2.33s.07,1.57.22,2.28c.15.71.4,1.33.75,1.86.35.53.81.95,1.4,1.26.59.31,1.32.47,2.19.47.8,0,1.49-.14,2.07-.43.59-.28,1.07-.68,1.44-1.2.38-.51.65-1.13.83-1.84.18-.71.27-1.5.27-2.35Z"/>
    <path class="cls-1" d="M89.74,27.21c.07.18.1.33.11.44,0,.11-.03.2-.09.26-.07.06-.18.1-.33.11-.15.02-.36.02-.62.02s-.46,0-.62-.02c-.15-.01-.27-.03-.35-.06-.08-.03-.14-.07-.17-.12-.04-.05-.07-.11-.11-.19l-1.38-3.92h-6.7l-1.32,3.87c-.02.07-.06.14-.1.19-.04.05-.1.1-.18.14-.08.04-.19.06-.34.08-.15.02-.33.02-.57.02s-.44-.01-.59-.03c-.15-.02-.26-.06-.32-.12-.06-.06-.09-.14-.09-.26,0-.11.04-.26.11-.44l5.4-14.96c.03-.09.08-.17.13-.22.05-.06.13-.1.24-.14.1-.03.24-.06.4-.07.16-.01.37-.02.62-.02.27,0,.49,0,.66.02.17.01.32.04.42.07.11.03.19.08.25.14.06.06.1.14.14.23l5.4,14.96ZM82.81,14.01h-.01l-2.78,8.03h5.6l-2.81-8.03Z"/>
    <path class="cls-1" d="M94.48,12.68c0,.48-.09.81-.27.98-.18.17-.52.26-1.01.26s-.81-.08-.99-.26c-.18-.17-.27-.49-.27-.96s.09-.81.27-.98c.18-.17.52-.26,1.01-.26s.81.09.99.26c.18.17.27.49.27.96ZM94.25,27.66c0,.07-.02.12-.05.17-.03.05-.09.09-.16.12-.07.03-.18.06-.31.07-.13.02-.3.02-.51.02s-.37,0-.5-.02c-.13-.02-.24-.04-.32-.07-.08-.03-.13-.07-.16-.12-.03-.05-.04-.1-.04-.17v-11.2c0-.06.01-.11.04-.16.03-.05.08-.09.16-.12.08-.03.18-.06.32-.07.13-.02.3-.02.5-.02s.38,0,.51.02c.13.02.24.04.31.07.07.03.13.07.16.12.03.05.05.1.05.16v11.2Z"/>
  </g>
</svg>