<?xml version="1.0" encoding="UTF-8"?>
<svg id="Layer_1" data-name="Layer 1" xmlns="http://www.w3.org/2000/svg" viewBox="0 0 43.08 42.02">
  <defs>
    <style>
      .cls-1 {
        fill: #fff;
        stroke-width: 0px;
      }
    </style>
  </defs>
  <path class="cls-1" d="M29.04,31.26c-2.65-1.53-4.9-3.67-6.66-5.89l-.02.02c4.26,6.44,10.87,15.21,20.73,15.27-2.78-1.35-4.71-2.52-6.49-4.08-2.32-2.03-4.88-3.79-7.56-5.32Z"/>
  <path class="cls-1" d="M42.94,1.21c-11.08.45-14.7,6.13-23.71,18.92C9.09,34.54,8.05,36.9.14,40.82c13.51-.18,21.61-17.35,24.59-21.25S35.27,3.08,42.94,1.21Z"/>
  <path class="cls-1" d="M20.71,15.94C13.54,5.98,9.86,1.69,0,1.36c7.56,1.78,15.09,13.93,18.2,18.04"/>
  <path class="cls-1" d="M31.9,31.33c-1.84-2.42-4.04-5.57-7.12-9.89-.4.48-1.22,1.78-1.84,2.87,2.18,2.31,5.14,4.87,8.96,7.03Z"/>
  <path class="cls-1" d="M29.04,31.26c-2.65-1.53-4.9-3.67-6.66-5.89l-.02.02c4.26,6.44,10.87,15.21,20.73,15.27-2.78-1.35-4.71-2.52-6.49-4.08-2.32-2.03-4.88-3.79-7.56-5.32Z"/>
  <g>
    <path class="cls-1" d="M8.57,8.64c-.71-.77-1.44-1.51-2.18-2.19C2.74,10.24.5,15.41.52,21.09s2.22,10.67,5.8,14.42c.66-.62,1.3-1.3,1.97-2.09-2.99-3.19-4.83-7.47-4.84-12.18s1.94-9.35,5.12-12.59Z"/>
    <path class="cls-1" d="M21.46,0c-4.03.01-7.79,1.16-10.98,3.14.52.32,1.02.68,1.52,1.07.41.32.81.65,1.21,1.01,2.43-1.25,5.19-1.95,8.11-1.97s5.8.71,8.29,1.99c.11-.1.23-.2.34-.3.82-.71,1.65-1.33,2.51-1.87C29.27,1.11,25.5-.01,21.46,0Z"/>
  </g>
  <g>
    <path class="cls-1" d="M30.44,36.66c-2.64,1.54-5.7,2.42-8.98,2.44s-6.22-.82-8.83-2.28c-.83.68-1.66,1.3-2.51,1.84,3.31,2.14,7.25,3.38,11.48,3.36,4.22-.01,8.15-1.28,11.44-3.43-.88-.57-1.75-1.21-2.61-1.93Z"/>
    <path class="cls-1" d="M34.43,33.5c.84.62,1.64,1.25,2.41,1.91,3.56-3.78,5.73-8.87,5.71-14.47-.02-5.68-2.29-10.82-5.97-14.59-.78.73-1.55,1.53-2.3,2.35,3.12,3.21,5.05,7.59,5.06,12.41s-1.86,9.17-4.92,12.39Z"/>
  </g>
  <path class="cls-1" d="M42.94,1.21c-11.08.45-14.7,6.13-23.71,18.92C9.09,34.54,8.05,36.9.13,40.82c13.51-.18,21.61-17.35,24.59-21.25S35.26,3.08,42.94,1.21Z"/>
</svg>